<?xml version="1.0" encoding="us-ascii" standalone="no"?><svg xmlns="http://www.w3.org/2000/svg" xmlns:xlink="http://www.w3.org/1999/xlink" contentStyleType="text/css" height="528px" preserveAspectRatio="none" style="width:852px;height:528px;background:#FFFFFF;" version="1.1" viewBox="0 0 852 528" width="852px" zoomAndPan="magnify"><defs/><g><rect fill="#FFFFFF" height="116.5313" style="stroke:#181818;stroke-width:1.0;" width="10" x="269.5" y="98.4297"/><rect fill="#FFFFFF" height="58.2656" style="stroke:#181818;stroke-width:1.0;" width="10" x="416.5" y="127.5625"/><rect fill="#FFFFFF" height="29.1328" style="stroke:#181818;stroke-width:1.0;" width="10" x="416.5" y="273.2266"/><rect fill="#FFFFFF" height="87.3984" style="stroke:#181818;stroke-width:1.0;" width="10" x="620.5" y="244.0938"/><rect fill="#FFFFFF" height="29.1328" style="stroke:#181818;stroke-width:1.0;" width="10" x="620.5" y="402.7578"/><line style="stroke:#181818;stroke-width:0.5;stroke-dasharray:5.0,5.0;" x1="33" x2="33" y1="67.2969" y2="449.8906"/><line style="stroke:#181818;stroke-width:0.5;stroke-dasharray:5.0,5.0;" x1="274" x2="274" y1="67.2969" y2="449.8906"/><line style="stroke:#181818;stroke-width:0.5;stroke-dasharray:5.0,5.0;" x1="421.5" x2="421.5" y1="67.2969" y2="449.8906"/><line style="stroke:#181818;stroke-width:0.5;stroke-dasharray:5.0,5.0;" x1="625" x2="625" y1="67.2969" y2="449.8906"/><line style="stroke:#181818;stroke-width:0.5;stroke-dasharray:5.0,5.0;" x1="793" x2="793" y1="67.2969" y2="449.8906"/><rect fill="#E2E2F0" height="30.2969" rx="2.5" ry="2.5" style="stroke:#181818;stroke-width:0.5;" width="57" x="5" y="36"/><text fill="#000000" font-family="sans-serif" font-size="14" lengthAdjust="spacing" textLength="43" x="12" y="55.9951">Client</text><rect fill="#E2E2F0" height="30.2969" rx="2.5" ry="2.5" style="stroke:#181818;stroke-width:0.5;" width="57" x="5" y="448.8906"/><text fill="#000000" font-family="sans-serif" font-size="14" lengthAdjust="spacing" textLength="43" x="12" y="468.8857">Client</text><rect fill="#E2E2F0" height="30.2969" rx="2.5" ry="2.5" style="stroke:#181818;stroke-width:0.5;" width="169" x="190" y="36"/><text fill="#000000" font-family="sans-serif" font-size="14" lengthAdjust="spacing" textLength="155" x="197" y="55.9951">Authorization Service</text><rect fill="#E2E2F0" height="30.2969" rx="2.5" ry="2.5" style="stroke:#181818;stroke-width:0.5;" width="169" x="190" y="448.8906"/><text fill="#000000" font-family="sans-serif" font-size="14" lengthAdjust="spacing" textLength="155" x="197" y="468.8857">Authorization Service</text><text fill="#000000" font-family="sans-serif" font-size="14" lengthAdjust="spacing" textLength="68" x="384.5" y="63.9951">Database</text><path d="M403.5,15 C403.5,5 421.5,5 421.5,5 C421.5,5 439.5,5 439.5,15 L439.5,41 C439.5,51 421.5,51 421.5,51 C421.5,51 403.5,51 403.5,41 L403.5,15 " fill="#E2E2F0" style="stroke:#181818;stroke-width:1.5;"/><path d="M403.5,15 C403.5,25 421.5,25 421.5,25 C421.5,25 439.5,25 439.5,15 " fill="none" style="stroke:#181818;stroke-width:1.5;"/><text fill="#000000" font-family="sans-serif" font-size="14" lengthAdjust="spacing" textLength="68" x="384.5" y="461.8857">Database</text><path d="M403.5,475.1875 C403.5,465.1875 421.5,465.1875 421.5,465.1875 C421.5,465.1875 439.5,465.1875 439.5,475.1875 L439.5,501.1875 C439.5,511.1875 421.5,511.1875 421.5,511.1875 C421.5,511.1875 403.5,511.1875 403.5,501.1875 L403.5,475.1875 " fill="#E2E2F0" style="stroke:#181818;stroke-width:1.5;"/><path d="M403.5,475.1875 C403.5,485.1875 421.5,485.1875 421.5,485.1875 C421.5,485.1875 439.5,485.1875 439.5,475.1875 " fill="none" style="stroke:#181818;stroke-width:1.5;"/><rect fill="#E2E2F0" height="30.2969" rx="2.5" ry="2.5" style="stroke:#181818;stroke-width:0.5;" width="113" x="569" y="36"/><text fill="#000000" font-family="sans-serif" font-size="14" lengthAdjust="spacing" textLength="99" x="576" y="55.9951">Game Service</text><rect fill="#E2E2F0" height="30.2969" rx="2.5" ry="2.5" style="stroke:#181818;stroke-width:0.5;" width="113" x="569" y="448.8906"/><text fill="#000000" font-family="sans-serif" font-size="14" lengthAdjust="spacing" textLength="99" x="576" y="468.8857">Game Service</text><rect fill="#E2E2F0" height="30.2969" rx="2.5" ry="2.5" style="stroke:#181818;stroke-width:0.5;" width="105" x="741" y="36"/><text fill="#000000" font-family="sans-serif" font-size="14" lengthAdjust="spacing" textLength="91" x="748" y="55.9951">Game Queue</text><rect fill="#E2E2F0" height="30.2969" rx="2.5" ry="2.5" style="stroke:#181818;stroke-width:0.5;" width="105" x="741" y="448.8906"/><text fill="#000000" font-family="sans-serif" font-size="14" lengthAdjust="spacing" textLength="91" x="748" y="468.8857">Game Queue</text><rect fill="#FFFFFF" height="116.5313" style="stroke:#181818;stroke-width:1.0;" width="10" x="269.5" y="98.4297"/><rect fill="#FFFFFF" height="58.2656" style="stroke:#181818;stroke-width:1.0;" width="10" x="416.5" y="127.5625"/><rect fill="#FFFFFF" height="29.1328" style="stroke:#181818;stroke-width:1.0;" width="10" x="416.5" y="273.2266"/><rect fill="#FFFFFF" height="87.3984" style="stroke:#181818;stroke-width:1.0;" width="10" x="620.5" y="244.0938"/><rect fill="#FFFFFF" height="29.1328" style="stroke:#181818;stroke-width:1.0;" width="10" x="620.5" y="402.7578"/><polygon fill="#181818" points="257.5,94.4297,267.5,98.4297,257.5,102.4297,261.5,98.4297" style="stroke:#181818;stroke-width:1.0;"/><line style="stroke:#181818;stroke-width:1.0;" x1="33.5" x2="263.5" y1="98.4297" y2="98.4297"/><text fill="#000000" font-family="sans-serif" font-size="13" lengthAdjust="spacing" textLength="48" x="40.5" y="93.3638">SignIn()</text><polygon fill="#181818" points="404.5,123.5625,414.5,127.5625,404.5,131.5625,408.5,127.5625" style="stroke:#181818;stroke-width:1.0;"/><line style="stroke:#181818;stroke-width:1.0;" x1="279.5" x2="410.5" y1="127.5625" y2="127.5625"/><text fill="#000000" font-family="sans-serif" font-size="13" lengthAdjust="spacing" textLength="118" x="286.5" y="122.4966">Data from SignIn()</text><polygon fill="#181818" points="290.5,152.6953,280.5,156.6953,290.5,160.6953,286.5,156.6953" style="stroke:#181818;stroke-width:1.0;"/><line style="stroke:#181818;stroke-width:1.0;stroke-dasharray:2.0,2.0;" x1="284.5" x2="415.5" y1="156.6953" y2="156.6953"/><text fill="#000000" font-family="sans-serif" font-size="13" lengthAdjust="spacing" textLength="76" x="296.5" y="151.6294">Data match</text><polygon fill="#181818" points="409.5,181.8281,419.5,185.8281,409.5,189.8281,413.5,185.8281" style="stroke:#181818;stroke-width:1.0;"/><line style="stroke:#181818;stroke-width:1.0;" x1="279.5" x2="415.5" y1="185.8281" y2="185.8281"/><text fill="#000000" font-family="sans-serif" font-size="13" lengthAdjust="spacing" textLength="95" x="286.5" y="180.7622">Create session</text><polygon fill="#181818" points="44.5,210.9609,34.5,214.9609,44.5,218.9609,40.5,214.9609" style="stroke:#181818;stroke-width:1.0;"/><line style="stroke:#181818;stroke-width:1.0;stroke-dasharray:2.0,2.0;" x1="38.5" x2="273.5" y1="214.9609" y2="214.9609"/><text fill="#000000" font-family="sans-serif" font-size="13" lengthAdjust="spacing" textLength="124" x="50.5" y="209.895">Send session token</text><polygon fill="#181818" points="608.5,240.0938,618.5,244.0938,608.5,248.0938,612.5,244.0938" style="stroke:#181818;stroke-width:1.0;"/><line style="stroke:#181818;stroke-width:1.0;" x1="33.5" x2="614.5" y1="244.0938" y2="244.0938"/><text fill="#000000" font-family="sans-serif" font-size="13" lengthAdjust="spacing" textLength="82" x="40.5" y="239.0278">GetParams()</text><polygon fill="#181818" points="437.5,269.2266,427.5,273.2266,437.5,277.2266,433.5,273.2266" style="stroke:#181818;stroke-width:1.0;"/><line style="stroke:#181818;stroke-width:1.0;stroke-dasharray:2.0,2.0;" x1="431.5" x2="619.5" y1="273.2266" y2="273.2266"/><text fill="#000000" font-family="sans-serif" font-size="13" lengthAdjust="spacing" textLength="82" x="443.5" y="268.1606">GetParams()</text><polygon fill="#181818" points="608.5,298.3594,618.5,302.3594,608.5,306.3594,612.5,302.3594" style="stroke:#181818;stroke-width:1.0;"/><line style="stroke:#181818;stroke-width:1.0;" x1="421.5" x2="614.5" y1="302.3594" y2="302.3594"/><text fill="#000000" font-family="sans-serif" font-size="13" lengthAdjust="spacing" textLength="170" x="428.5" y="297.2935">Give data for GetParams()</text><polygon fill="#181818" points="44.5,327.4922,34.5,331.4922,44.5,335.4922,40.5,331.4922" style="stroke:#181818;stroke-width:1.0;"/><line style="stroke:#181818;stroke-width:1.0;stroke-dasharray:2.0,2.0;" x1="38.5" x2="624.5" y1="331.4922" y2="331.4922"/><text fill="#000000" font-family="sans-serif" font-size="13" lengthAdjust="spacing" textLength="253" x="50.5" y="326.4263">Give compressed data for GetParams()</text><line style="stroke:#181818;stroke-width:1.0;" x1="33.5" x2="75.5" y1="360.625" y2="360.625"/><line style="stroke:#181818;stroke-width:1.0;" x1="75.5" x2="75.5" y1="360.625" y2="373.625"/><line style="stroke:#181818;stroke-width:1.0;" x1="34.5" x2="75.5" y1="373.625" y2="373.625"/><polygon fill="#181818" points="44.5,369.625,34.5,373.625,44.5,377.625,40.5,373.625" style="stroke:#181818;stroke-width:1.0;"/><text fill="#000000" font-family="sans-serif" font-size="13" lengthAdjust="spacing" textLength="227" x="40.5" y="355.5591">Decompress and apply parameters</text><polygon fill="#181818" points="608.5,398.7578,618.5,402.7578,608.5,406.7578,612.5,402.7578" style="stroke:#181818;stroke-width:1.0;"/><line style="stroke:#181818;stroke-width:1.0;" x1="33.5" x2="614.5" y1="402.7578" y2="402.7578"/><text fill="#000000" font-family="sans-serif" font-size="13" lengthAdjust="spacing" textLength="80" x="40.5" y="397.6919">StartGame()</text><polygon fill="#181818" points="781.5,427.8906,791.5,431.8906,781.5,435.8906,785.5,431.8906" style="stroke:#181818;stroke-width:1.0;"/><line style="stroke:#181818;stroke-width:1.0;" x1="625.5" x2="787.5" y1="431.8906" y2="431.8906"/><text fill="#000000" font-family="sans-serif" font-size="13" lengthAdjust="spacing" textLength="139" x="632.5" y="426.8247">Starting Game Queue</text><!--SRC=[ZL91RiCW4BppYfLFxI4Vo25IbKXHRwtyWYtUEAWnKC2MsjSNR1F0iTMUM61dTcQq6eqJN6YK3lXDa3_GGdKSouhfxBjwwTrL6V63JYW9DPb1SAf2F_eVEzrPWmu_q19KfxaQM-9pINd6ZWgcrZz4fiVEzvxwrFSLRepDidU7NCOUQj7AL_dqp90xCQ2ZGcLM1sHKjuSW6Yv6TIi4TmztZxlbr17UeUFNxH57Gu7DahK-IDRGuu02wy6JHs-AP1E1uDGd5V3SO4ebYtGFPt9lQB2pkQyyzAmU9oVPgz2LI9OJnJ2rmKMPWcJD-79yD3woSDLfuyrJyoTXRYb54TbE5Aa0VQ2ezUqRTA0XHyPkXLSxlv5X4VyLtY4jwGmLieMqnnjoVm40]--></g></svg>