<?xml version="1.0" encoding="us-ascii" standalone="no"?><svg xmlns="http://www.w3.org/2000/svg" xmlns:xlink="http://www.w3.org/1999/xlink" contentStyleType="text/css" height="240px" preserveAspectRatio="none" style="width:431px;height:240px;background:#FFFFFF;" version="1.1" viewBox="0 0 431 240" width="431px" zoomAndPan="magnify"><defs/><g><!--cluster Queries--><g id="cluster_Queries"><path d="M8.5,6 L70.5,6 A3.75,3.75 0 0 1 73,8.5 L80,28.2969 L421.5,28.2969 A2.5,2.5 0 0 1 424,30.7969 L424,230.5 A2.5,2.5 0 0 1 421.5,233 L8.5,233 A2.5,2.5 0 0 1 6,230.5 L6,8.5 A2.5,2.5 0 0 1 8.5,6 " fill="none" style="stroke:#000000;stroke-width:1.5;"/><line style="stroke:#000000;stroke-width:1.5;" x1="6" x2="80" y1="28.2969" y2="28.2969"/><text fill="#000000" font-family="sans-serif" font-size="14" font-weight="bold" lengthAdjust="spacing" textLength="61" x="10" y="20.9951">Queries</text></g><g id="elem_getparams"><rect fill="#F1F1F1" height="40.5938" style="stroke:#181818;stroke-width:0.5;" width="159" x="30.5" y="45"/><text fill="#000000" font-family="sans-serif" font-size="14" lengthAdjust="spacing" textLength="89" x="65.5" y="59.9951">GetParams()</text><line style="stroke:#181818;stroke-width:1.0;" x1="30.5" x2="189.5" y1="65.2969" y2="65.2969"/><text fill="#000000" font-family="sans-serif" font-size="14" lengthAdjust="spacing" textLength="97" x="35.5" y="80.292">sessionToken</text><text fill="#000000" font-family="sans-serif" font-size="14" lengthAdjust="spacing" textLength="42" x="142.5" y="80.292">string</text><line style="stroke:#181818;stroke-width:1.0;" x1="137.5" x2="137.5" y1="65.2969" y2="85.5938"/></g><g id="elem_startgame"><rect fill="#F1F1F1" height="40.5938" style="stroke:#181818;stroke-width:0.5;" width="159" x="240.5" y="45"/><text fill="#000000" font-family="sans-serif" font-size="14" lengthAdjust="spacing" textLength="89" x="275.5" y="59.9951">StartGame()</text><line style="stroke:#181818;stroke-width:1.0;" x1="240.5" x2="399.5" y1="65.2969" y2="65.2969"/><text fill="#000000" font-family="sans-serif" font-size="14" lengthAdjust="spacing" textLength="97" x="245.5" y="80.292">sessionToken</text><text fill="#000000" font-family="sans-serif" font-size="14" lengthAdjust="spacing" textLength="42" x="352.5" y="80.292">string</text><line style="stroke:#181818;stroke-width:1.0;" x1="347.5" x2="347.5" y1="65.2969" y2="85.5938"/></g><g id="elem_signin"><rect fill="#F1F1F1" height="60.8906" style="stroke:#181818;stroke-width:0.5;" width="163" x="30.5" y="153"/><text fill="#000000" font-family="sans-serif" font-size="14" lengthAdjust="spacing" textLength="54" x="85" y="167.9951">SignIn()</text><line style="stroke:#181818;stroke-width:1.0;" x1="30.5" x2="193.5" y1="173.2969" y2="173.2969"/><text fill="#000000" font-family="sans-serif" font-size="14" lengthAdjust="spacing" textLength="40" x="66" y="188.292">name</text><text fill="#000000" font-family="sans-serif" font-size="14" lengthAdjust="spacing" textLength="42" x="146.5" y="188.292">string</text><line style="stroke:#181818;stroke-width:1.0;" x1="141.5" x2="141.5" y1="173.2969" y2="193.5938"/><line style="stroke:#181818;stroke-width:1.0;" x1="30.5" x2="193.5" y1="193.5938" y2="193.5938"/><text fill="#000000" font-family="sans-serif" font-size="14" lengthAdjust="spacing" textLength="101" x="35.5" y="208.5889">passwordHash</text><text fill="#000000" font-family="sans-serif" font-size="14" lengthAdjust="spacing" textLength="42" x="146.5" y="208.5889">string</text><line style="stroke:#181818;stroke-width:1.0;" x1="141.5" x2="141.5" y1="193.5938" y2="213.8906"/></g><!--SRC=[XSmn3i8m38NXlQUmCi4XO2ri8BY01LQmgZXHdX43wjr9In5YOlobzxt2bu6ZK3ZUfQeWqBDBN2ZquWUkdB1Q1s9G52zpjm44q6pdF8ZHPalmgXQxyIrFpjLxJh98J1rR_vSQRMyVraAj6PleTriOUEHwtJ5kFnVZ2m00]--></g></svg>