<?xml version="1.0" encoding="us-ascii" standalone="no"?><svg xmlns="http://www.w3.org/2000/svg" xmlns:xlink="http://www.w3.org/1999/xlink" contentStyleType="text/css" height="228px" preserveAspectRatio="none" style="width:319px;height:228px;background:#FFFFFF;" version="1.1" viewBox="0 0 319 228" width="319px" zoomAndPan="magnify"><defs/><g><!--cluster Queries--><g id="cluster_Queries"><path d="M8.5,6 L70.5,6 A3.75,3.75 0 0 1 73,8.5 L80,28.2969 L309.5,28.2969 A2.5,2.5 0 0 1 312,30.7969 L312,218.5 A2.5,2.5 0 0 1 309.5,221 L8.5,221 A2.5,2.5 0 0 1 6,218.5 L6,8.5 A2.5,2.5 0 0 1 8.5,6 " fill="none" style="stroke:#000000;stroke-width:1.5;"/><line style="stroke:#000000;stroke-width:1.5;" x1="6" x2="80" y1="28.2969" y2="28.2969"/><text fill="#000000" font-family="sans-serif" font-size="14" font-weight="bold" lengthAdjust="spacing" textLength="61" x="10" y="20.9951">Queries</text></g><g id="elem_getparams"><rect fill="#F1F1F1" height="20.2969" style="stroke:#181818;stroke-width:0.5;" width="103" x="30.5" y="49"/><text fill="#000000" font-family="sans-serif" font-size="14" lengthAdjust="spacing" textLength="89" x="37.5" y="63.9951">GetParams()</text></g><g id="elem_startgame"><rect fill="#F1F1F1" height="20.2969" style="stroke:#181818;stroke-width:0.5;" width="103" x="184.5" y="49"/><text fill="#000000" font-family="sans-serif" font-size="14" lengthAdjust="spacing" textLength="89" x="191.5" y="63.9951">StartGame()</text></g><g id="elem_signin"><rect fill="#F1F1F1" height="60.8906" style="stroke:#181818;stroke-width:0.5;" width="163" x="30.5" y="141"/><text fill="#000000" font-family="sans-serif" font-size="14" lengthAdjust="spacing" textLength="54" x="85" y="155.9951">SignIn()</text><line style="stroke:#181818;stroke-width:1.0;" x1="30.5" x2="193.5" y1="161.2969" y2="161.2969"/><text fill="#000000" font-family="sans-serif" font-size="14" lengthAdjust="spacing" textLength="40" x="66" y="176.292">name</text><text fill="#000000" font-family="sans-serif" font-size="14" lengthAdjust="spacing" textLength="42" x="146.5" y="176.292">string</text><line style="stroke:#181818;stroke-width:1.0;" x1="141.5" x2="141.5" y1="161.2969" y2="181.5938"/><line style="stroke:#181818;stroke-width:1.0;" x1="30.5" x2="193.5" y1="181.5938" y2="181.5938"/><text fill="#000000" font-family="sans-serif" font-size="14" lengthAdjust="spacing" textLength="101" x="35.5" y="196.5889">passwordHash</text><text fill="#000000" font-family="sans-serif" font-size="14" lengthAdjust="spacing" textLength="42" x="146.5" y="196.5889">string</text><line style="stroke:#181818;stroke-width:1.0;" x1="141.5" x2="141.5" y1="181.5938" y2="201.8906"/></g><!--SRC=[JSix3W8n34NHFgkmKi4Ye1teGApW2ImJePZ83g90sJiUFjAKz_cuuNo3CENZWwsmPtgbYaPvudw0eVfgdGbEmhrzEa0QNtFgi3wXyi_ut1AzD4LqhtyGKJIkEgFDDZwigAG6z-VTBZluTJ6FDDu0]--></g></svg>