<?xml version="1.0" encoding="us-ascii" standalone="no"?><svg xmlns="http://www.w3.org/2000/svg" xmlns:xlink="http://www.w3.org/1999/xlink" contentStyleType="text/css" height="191px" preserveAspectRatio="none" style="width:501px;height:191px;background:#FFFFFF;" version="1.1" viewBox="0 0 501 191" width="501px" zoomAndPan="magnify"><defs/><g><rect fill="#FFFFFF" height="29.1328" style="stroke:#181818;stroke-width:1.0;" width="10" x="269.5" y="109.5625"/><line style="stroke:#181818;stroke-width:0.5;stroke-dasharray:5.0,5.0;" x1="33" x2="33" y1="36.2969" y2="156.6953"/><line style="stroke:#181818;stroke-width:0.5;stroke-dasharray:5.0,5.0;" x1="274" x2="274" y1="36.2969" y2="156.6953"/><line style="stroke:#181818;stroke-width:0.5;stroke-dasharray:5.0,5.0;" x1="442" x2="442" y1="36.2969" y2="156.6953"/><rect fill="#E2E2F0" height="30.2969" rx="2.5" ry="2.5" style="stroke:#181818;stroke-width:0.5;" width="57" x="5" y="5"/><text fill="#000000" font-family="sans-serif" font-size="14" lengthAdjust="spacing" textLength="43" x="12" y="24.9951">Client</text><rect fill="#E2E2F0" height="30.2969" rx="2.5" ry="2.5" style="stroke:#181818;stroke-width:0.5;" width="57" x="5" y="155.6953"/><text fill="#000000" font-family="sans-serif" font-size="14" lengthAdjust="spacing" textLength="43" x="12" y="175.6904">Client</text><rect fill="#E2E2F0" height="30.2969" rx="2.5" ry="2.5" style="stroke:#181818;stroke-width:0.5;" width="113" x="218" y="5"/><text fill="#000000" font-family="sans-serif" font-size="14" lengthAdjust="spacing" textLength="99" x="225" y="24.9951">Game Service</text><rect fill="#E2E2F0" height="30.2969" rx="2.5" ry="2.5" style="stroke:#181818;stroke-width:0.5;" width="113" x="218" y="155.6953"/><text fill="#000000" font-family="sans-serif" font-size="14" lengthAdjust="spacing" textLength="99" x="225" y="175.6904">Game Service</text><rect fill="#E2E2F0" height="30.2969" rx="2.5" ry="2.5" style="stroke:#181818;stroke-width:0.5;" width="105" x="390" y="5"/><text fill="#000000" font-family="sans-serif" font-size="14" lengthAdjust="spacing" textLength="91" x="397" y="24.9951">Game Queue</text><rect fill="#E2E2F0" height="30.2969" rx="2.5" ry="2.5" style="stroke:#181818;stroke-width:0.5;" width="105" x="390" y="155.6953"/><text fill="#000000" font-family="sans-serif" font-size="14" lengthAdjust="spacing" textLength="91" x="397" y="175.6904">Game Queue</text><rect fill="#FFFFFF" height="29.1328" style="stroke:#181818;stroke-width:1.0;" width="10" x="269.5" y="109.5625"/><line style="stroke:#181818;stroke-width:1.0;" x1="33.5" x2="75.5" y1="67.4297" y2="67.4297"/><line style="stroke:#181818;stroke-width:1.0;" x1="75.5" x2="75.5" y1="67.4297" y2="80.4297"/><line style="stroke:#181818;stroke-width:1.0;" x1="34.5" x2="75.5" y1="80.4297" y2="80.4297"/><polygon fill="#181818" points="44.5,76.4297,34.5,80.4297,44.5,84.4297,40.5,80.4297" style="stroke:#181818;stroke-width:1.0;"/><text fill="#000000" font-family="sans-serif" font-size="13" lengthAdjust="spacing" textLength="227" x="40.5" y="62.3638">Decompress and apply parameters</text><polygon fill="#181818" points="257.5,105.5625,267.5,109.5625,257.5,113.5625,261.5,109.5625" style="stroke:#181818;stroke-width:1.0;"/><line style="stroke:#181818;stroke-width:1.0;" x1="33.5" x2="263.5" y1="109.5625" y2="109.5625"/><text fill="#000000" font-family="sans-serif" font-size="13" lengthAdjust="spacing" textLength="80" x="40.5" y="104.4966">StartGame()</text><polygon fill="#181818" points="430.5,134.6953,440.5,138.6953,430.5,142.6953,434.5,138.6953" style="stroke:#181818;stroke-width:1.0;"/><line style="stroke:#181818;stroke-width:1.0;" x1="274.5" x2="436.5" y1="138.6953" y2="138.6953"/><text fill="#000000" font-family="sans-serif" font-size="13" lengthAdjust="spacing" textLength="139" x="281.5" y="133.6294">Starting Game Queue</text><!--SRC=[ROuz2iCm38Ltdq9uQeTU84EN53gNd40u8WWILxMLG6yVEtM82vdqzvw-9nYK7Gjw1JSofO8HRBkrraXrja-S23eA2pkoMJQaHVpD9yhNJFEX- -J9cCAutGkjWGUvzoI1OWJqFQ38-8NqBNcKGgmS5Qw1JXCmSovNWqvvGQM_G5M_cxSCnSf-W2EcwUdioGe0]--></g></svg>